HIERARCHY
ROOT Hips
{
	OFFSET -0.001795 -0.223333 0.028219
	CHANNELS 6 Xposition Yposition Zposition Zrotation Yrotation Xrotation 
	JOINT LeftUpLeg
	{
		OFFSET 0.069520 -0.091406 -0.006815
		CHANNELS 3 Zrotation Yrotation Xrotation
		JOINT LeftLeg
		{
			OFFSET 0.034277 -0.375199 -0.004496
			CHANNELS 3 Zrotation Yrotation Xrotation
			JOINT LeftFoot
			{
				OFFSET -0.013596 -0.397961 -0.043693
				CHANNELS 3 Zrotation Yrotation Xrotation
				JOINT LeftToe
				{
					OFFSET 0.026358 -0.055791 0.119288
					CHANNELS 3 Zrotation Yrotation Xrotation
					End Site
					{
						OFFSET 0.000000 0.000000 0.000000
					}
				}
			}
		}
	}
	JOINT RightUpLeg
	{
		OFFSET -0.067670 -0.090522 -0.004320
		CHANNELS 3 Zrotation Yrotation Xrotation
		JOINT RightLeg
		{
			OFFSET -0.038290 -0.382569 -0.008850
			CHANNELS 3 Zrotation Yrotation Xrotation
			JOINT RightFoot
			{
				OFFSET 0.015774 -0.398415 -0.042312
				CHANNELS 3 Zrotation Yrotation Xrotation
				JOINT RightToe
				{
					OFFSET -0.025372 -0.048144 0.123348
					CHANNELS 3 Zrotation Yrotation Xrotation
					End Site
					{
						OFFSET 0.000000 0.000000 0.000000
					}
				}
			}
		}
	}
	JOINT Spine
	{
		OFFSET -0.002533 0.108963 -0.026696
		CHANNELS 3 Zrotation Yrotation Xrotation
		JOINT Spine1
		{
			OFFSET 0.005487 0.135180 0.001092
			CHANNELS 3 Zrotation Yrotation Xrotation
			JOINT Spine2
			{
				OFFSET 0.001457 0.052922 0.025425
				CHANNELS 3 Zrotation Yrotation Xrotation
				JOINT Neck
				{
					OFFSET -0.002778 0.213870 -0.042857
					CHANNELS 3 Zrotation Yrotation Xrotation
					JOINT Head
					{
						OFFSET 0.005152 0.064970 0.051349
						CHANNELS 3 Zrotation Yrotation Xrotation
						End Site
						{
							OFFSET 0.000000 0.000000 0.000000
						}
					}
				}
				JOINT LeftShoulder
				{
					OFFSET 0.078845 0.121749 -0.034090
					CHANNELS 3 Zrotation Yrotation Xrotation
					JOINT LeftArm
					{
						OFFSET 0.090977 0.030469 -0.008868
						CHANNELS 3 Zrotation Yrotation Xrotation
						JOINT LeftForeArm
						{
							OFFSET 0.259612 -0.012772 -0.027456
							CHANNELS 3 Zrotation Yrotation Xrotation
							JOINT LeftHand
							{
								OFFSET 0.249234 0.008986 -0.001171
								CHANNELS 3 Zrotation Yrotation Xrotation
								End Site
								{
									OFFSET 0.000000 0.000000 0.000000
								}
							}
						}
					}
				}
				JOINT RightShoulder
				{
					OFFSET -0.081759 0.118833 -0.038615
					CHANNELS 3 Zrotation Yrotation Xrotation
					JOINT RightArm
					{
						OFFSET -0.096012 0.032551 -0.009143
						CHANNELS 3 Zrotation Yrotation Xrotation
						JOINT RightForeArm
						{
							OFFSET -0.253742 -0.013329 -0.021401
							CHANNELS 3 Zrotation Yrotation Xrotation
							JOINT RightHand
							{
								OFFSET -0.255298 0.007772 -0.005559
								CHANNELS 3 Zrotation Yrotation Xrotation
								End Site
								{
									OFFSET 0.000000 0.000000 0.000000
								}
							}
						}
					}
				}
			}
		}
	}
}
MOTION
Frames: 16
Frame Time: 0.050000
0.000000 0.903876 0.000000 -1.559319 -7.378061 1.914735 10.354501 0.416495 -24.840618 0.688306 -0.210473 3.748756 -9.684421 14.163642 86.416812 0.000000 0.000000 0.000000 3.539315 -0.331554 1.559076 3.249331 -0.168447 6.477741 -3.527485 -4.151757 -8.892772 0.000000 0.000000 0.000000 3.484239 -0.556791 7.529949 -4.685565 2.566055 5.693427 -0.809129 6.847721 -0.606006 2.240993 -0.125886 -13.181427 0.000000 0.000000 0.000000 -37.711680 -14.772207 5.104018 -24.685040 0.591863 -2.291018 12.426004 -33.917382 -2.589944 0.000000 0.000000 0.000000 32.648569 13.234076 7.658628 36.032385 2.500170 -2.883893 -5.780102 36.240932 -0.395513 0.000000 0.000000 0.000000 
0.000150 0.902867 0.006040 -1.916335 -7.398377 2.025050 10.387515 0.463259 -25.986590 1.174650 -0.371698 6.283169 -11.362713 10.694798 76.497942 0.000000 0.000000 0.000000 4.704205 -0.440923 1.943922 1.698356 0.051614 6.401710 -3.658777 -4.325158 -9.236717 0.000000 0.000000 0.000000 4.807360 -0.671373 7.687449 -4.425242 2.399303 5.258852 -1.926810 7.382037 -0.407183 3.108035 -0.133393 -17.042405 0.000000 0.000000 0.000000 -37.681442 -14.876277 4.718105 -25.237158 1.141962 -2.349405 13.036497 -35.405765 -2.956621 0.000000 0.000000 0.000000 32.645864 12.461924 7.520031 36.165784 3.147146 -2.866524 -6.566132 37.295385 -0.585101 0.000000 0.000000 0.000000 
0.001697 0.902059 0.014982 -1.655125 -6.833206 0.228400 9.167895 0.130755 -25.079824 2.166024 -0.650568 8.727374 -8.939543 -0.069260 36.672453 0.000000 0.000000 0.000000 4.235243 -0.782418 5.012361 1.780727 -0.000967 5.454768 -3.740279 -4.630912 -9.345343 0.000000 0.000000 0.000000 5.653375 -0.859783 9.650222 -4.372130 2.222875 2.425430 -2.448676 8.156044 2.997205 4.634082 -1.154446 -15.550512 0.000000 0.000000 0.000000 -37.291232 -16.552304 5.645287 -26.122383 1.804769 -2.635255 15.260521 -33.958475 -3.542234 0.000000 0.000000 0.000000 34.887829 12.836713 8.677851 33.770281 4.357983 -2.821414 -8.730284 35.586188 -1.170694 0.000000 0.000000 0.000000 
0.005121 0.903249 0.026692 -1.487478 -8.446728 -0.078577 9.132348 0.236202 -24.282486 1.970763 -0.638035 9.978255 -6.651523 -6.747787 13.189921 0.000000 0.000000 0.000000 3.863947 -0.812280 5.573745 0.803897 0.179678 6.262201 -3.336394 -3.267969 -8.975153 0.000000 0.000000 0.000000 5.386709 -0.813205 9.635317 -4.222468 2.242833 3.842001 -2.440099 9.517482 2.103502 6.084965 -1.815898 -16.499764 0.000000 0.000000 0.000000 -36.413763 -16.470624 5.166309 -26.806699 2.671418 -2.773261 13.349192 -33.731030 -2.974410 0.000000 0.000000 0.000000 35.267741 14.165247 10.007051 33.136017 4.485372 -2.761050 -9.559615 33.497459 -1.348848 0.000000 0.000000 0.000000 
0.010940 0.901631 0.040905 -1.359327 -9.700552 0.017914 8.571531 0.189016 -23.740299 2.320059 -0.723225 10.924263 -5.070879 -7.917769 5.222783 0.000000 0.000000 0.000000 2.769156 -0.749472 5.878550 0.982507 0.199608 7.036204 -3.143598 -2.103981 -9.406973 0.000000 0.000000 0.000000 6.149445 -0.837300 9.271679 -4.540749 2.460978 4.234870 -2.234835 10.819301 2.401059 6.715778 -2.290716 -15.591665 0.000000 0.000000 0.000000 -36.217161 -16.748094 5.042933 -27.931940 3.388783 -2.988053 12.456568 -34.032356 -2.767837 0.000000 0.000000 0.000000 35.628530 13.249251 9.694878 31.778751 5.505928 -2.553449 -10.155158 32.012080 -1.423373 0.000000 0.000000 0.000000 
0.019014 0.900111 0.057516 -1.472213 -10.881877 0.662866 8.181692 0.151650 -22.925627 2.444732 -0.721110 10.611532 -3.828551 -5.638638 5.229410 0.000000 0.000000 0.000000 2.197973 -0.686075 5.769118 0.332104 0.340436 7.692016 -2.951250 -1.176684 -9.512663 0.000000 0.000000 0.000000 6.658887 -0.900555 9.525383 -4.310845 2.358980 4.255528 -1.542527 11.373674 2.043210 6.425863 -2.106893 -15.676240 0.000000 0.000000 0.000000 -35.972021 -16.563046 4.964140 -30.179214 4.631238 -3.534083 11.513739 -34.243557 -2.513828 0.000000 0.000000 0.000000 35.115555 14.233266 10.272280 31.248753 5.595654 -2.435415 -9.630172 30.411017 -1.237567 0.000000 0.000000 0.000000 
0.029067 0.898123 0.076093 -1.269330 -12.120581 1.212388 7.494372 0.071838 -22.937710 2.130927 -0.659934 12.020139 -2.047257 -2.068737 6.026152 0.000000 0.000000 0.000000 0.874173 -0.555877 5.759644 0.046446 0.432414 8.350959 -2.745508 -0.195970 -9.620092 0.000000 0.000000 0.000000 7.311224 -0.982673 9.897955 -4.290819 2.313905 3.483204 -0.910498 11.937463 2.126359 6.636549 -2.269862 -15.618524 0.000000 0.000000 0.000000 -34.798280 -15.248233 4.127907 -32.345980 5.210703 -4.023785 8.316757 -36.099539 -1.653072 0.000000 0.000000 0.000000 34.506311 14.107557 9.942819 30.463733 5.302147 -2.399187 -8.945168 29.884117 -1.062705 0.000000 0.000000 0.000000 
0.040856 0.895918 0.096110 -1.058792 -12.889653 1.452109 6.752204 -0.036709 -23.486089 1.405084 -0.489756 14.858882 -0.144702 1.272752 5.495719 0.000000 0.000000 0.000000 -0.813306 -0.403373 6.111467 0.307465 0.441012 9.052737 -2.503219 0.419360 -9.302991 0.000000 0.000000 0.000000 7.452326 -1.089610 11.128971 -4.147821 2.282728 3.914979 -0.266709 12.231563 1.158483 6.525014 -2.161184 -15.859534 0.000000 0.000000 0.000000 -33.992705 -14.248492 3.427438 -33.718620 5.972287 -4.378675 6.176058 -37.179584 -1.025317 0.000000 0.000000 0.000000 33.779919 14.195718 9.777601 30.165066 4.918849 -2.364351 -8.764032 28.169264 -0.960636 0.000000 0.000000 0.000000 
0.053820 0.893579 0.117275 -0.756727 -14.580598 2.050569 5.857486 -0.118740 -24.254900 0.780302 -0.229344 17.773266 1.125623 2.874000 2.296355 0.000000 0.000000 0.000000 -2.529593 -0.166086 5.653158 -0.208650 0.622503 10.222510 -2.089790 1.617861 -8.881680 0.000000 0.000000 0.000000 7.549067 -1.185684 12.434050 -4.128984 2.232290 3.069603 0.319622 13.091513 1.395923 7.229524 -2.503103 -16.443407 0.000000 0.000000 0.000000 -33.239551 -14.240353 3.521610 -35.233011 6.396182 -4.763684 6.118811 -38.270853 -1.058740 0.000000 0.000000 0.000000 33.327053 14.248668 9.696650 29.623485 4.548180 -2.391840 -8.016033 26.476937 -0.744163 0.000000 0.000000 0.000000 
0.067525 0.890266 0.138878 -0.689602 -16.107031 2.713199 5.278855 -0.114737 -25.527377 -0.194397 0.270188 21.410969 2.162345 4.358128 -0.864559 0.000000 0.000000 0.000000 -4.463258 0.116854 4.773458 -0.157835 0.838524 12.781940 -1.601182 3.665354 -9.202560 0.000000 0.000000 0.000000 7.357807 -1.220925 13.433128 -3.968448 2.201584 3.432051 1.089535 13.662686 1.184385 7.269044 -2.401847 -17.305553 0.000000 0.000000 0.000000 -33.654091 -13.703404 3.250656 -35.356186 6.325494 -4.767998 5.545994 -39.868466 -0.894694 0.000000 0.000000 0.000000 33.781423 14.965230 10.158585 28.850764 3.357520 -2.523708 -8.558443 24.134496 -0.788941 0.000000 0.000000 0.000000 
0.081633 0.885201 0.160374 -0.780081 -17.437619 3.325155 4.628023 -0.139820 -26.626577 -0.903698 0.804303 24.762519 3.030823 5.733747 -4.322471 0.000000 0.000000 0.000000 -6.053951 0.375661 2.743602 -0.467726 1.397837 17.508306 -1.128742 5.612813 -9.459590 0.000000 0.000000 0.000000 7.374292 -1.302185 15.007907 -3.806752 2.214007 4.235717 1.301061 13.663313 -0.047247 7.612632 -2.644695 -17.196418 0.000000 0.000000 0.000000 -34.247337 -14.877491 4.269474 -35.257718 6.662759 -4.799342 6.903424 -40.345159 -1.372038 0.000000 0.000000 0.000000 34.227418 15.852204 10.603413 28.521472 2.359348 -2.566377 -8.498702 20.917350 -0.668293 0.000000 0.000000 0.000000 
0.095956 0.876794 0.181213 -0.876555 -17.965533 3.385931 4.306650 -0.131338 -27.665425 -2.297823 1.728430 28.711068 3.568258 6.426221 -8.382339 0.000000 0.000000 0.000000 -7.169613 0.536998 0.763638 -1.619094 2.480191 23.376353 -0.448370 8.314952 -9.862878 0.000000 0.000000 0.000000 7.108879 -1.312993 16.149776 -3.118307 1.901623 4.706147 1.119075 13.076831 0.065018 8.109207 -3.043856 -16.959680 0.000000 0.000000 0.000000 -35.357918 -16.172860 5.610516 -34.712532 5.888791 -4.596887 9.193544 -40.951759 -2.173602 0.000000 0.000000 0.000000 35.674586 17.000734 11.377694 27.618466 0.835549 -2.719612 -8.499866 18.936887 -0.607894 0.000000 0.000000 0.000000 
0.110062 0.864366 0.201035 -1.467583 -18.931791 3.328466 4.087378 -0.031827 -29.114949 -2.756707 2.621346 33.979918 4.167185 7.321400 -13.026885 0.000000 0.000000 0.000000 -8.421186 0.694125 -1.011504 -2.235874 3.655540 28.950930 0.599361 12.775264 -10.529405 0.000000 0.000000 0.000000 7.052900 -1.338135 17.625303 -3.071106 2.003505 5.811636 0.769703 12.761284 -1.107338 8.943647 -3.658173 -16.314411 0.000000 0.000000 0.000000 -36.103849 -17.852036 7.054765 -33.779737 5.454668 -4.315379 10.802823 -40.405277 -2.695187 0.000000 0.000000 0.000000 36.830150 16.948006 11.251871 26.997256 -0.305522 -2.774463 -8.120026 17.524752 -0.507377 0.000000 0.000000 0.000000 
0.123186 0.851616 0.219515 -1.893456 -19.441334 3.308184 3.539897 -0.040907 -30.822529 -2.784848 3.401711 39.248816 4.595279 7.811559 -16.821627 0.000000 0.000000 0.000000 -9.389478 0.805963 -2.949098 -2.778153 5.037131 34.600535 1.585319 15.866078 -10.306476 0.000000 0.000000 0.000000 7.047683 -1.345882 18.406273 -2.474063 1.731942 6.247813 0.204435 11.952097 -1.113799 9.260745 -3.964785 -16.060869 0.000000 0.000000 0.000000 -36.652424 -19.437159 8.768925 -33.162120 4.226426 -4.033526 12.705498 -40.052451 -3.293253 0.000000 0.000000 0.000000 37.644622 16.986381 10.957054 27.422272 -1.788277 -3.008099 -8.979502 17.410178 -0.620134 0.000000 0.000000 0.000000 
0.134167 0.837590 0.236155 -2.277088 -20.312289 2.890876 3.341200 0.033345 -31.502562 -3.143624 4.422282 43.507495 5.093336 8.598437 -21.050040 0.000000 0.000000 0.000000 -10.356557 0.907074 -4.846616 -2.556525 6.275579 39.988939 2.676918 17.296234 -8.726668 0.000000 0.000000 0.000000 6.301850 -1.198465 18.782441 -1.971471 1.563287 7.149577 -0.566056 11.146587 -1.731210 9.098134 -4.231758 -14.369623 0.000000 0.000000 0.000000 -37.349716 -20.887336 10.406708 -32.117844 3.674806 -3.836237 13.842063 -38.668709 -3.506801 0.000000 0.000000 0.000000 38.685299 16.597791 10.277559 27.460591 -3.627575 -3.236120 -8.544164 18.528394 -0.619949 0.000000 0.000000 0.000000 
0.141955 0.827733 0.250527 -3.122461 -20.813748 2.768002 3.421828 0.135851 -31.774663 -2.910760 4.913709 46.572487 5.421814 9.037216 -24.218893 0.000000 0.000000 0.000000 -10.620919 0.953376 -6.590340 -1.277934 6.848630 44.615377 1.848701 12.780827 -7.491141 0.000000 0.000000 0.000000 5.981338 -1.133652 18.924594 -1.551986 1.301863 6.704633 -1.317348 10.589019 -1.164976 9.572046 -4.895641 -12.793534 0.000000 0.000000 0.000000 -37.398247 -22.575415 12.165592 -31.803091 3.102608 -3.792611 14.332714 -35.610064 -3.314700 0.000000 0.000000 0.000000 39.500111 15.935852 9.488784 28.522237 -5.130565 -3.626621 -9.579214 20.271570 -0.863210 0.000000 0.000000 0.000000 
